[ConversionWorker] Logging FFmpeg output to: ffmpeg_logs\ffmpeg_conversion_高冷19_wav_20250525_174247.log\n[ConversionWorker] Getting duration with command: ffprobe -v error -show_entries format=duration -of default=noprint_wrappers=1:nokey=1 Z:\Story\高冷\高冷19.wav\n[ConversionWorker] Duration for 高冷19.wav: 13695313 ms\n[ConversionWorker] Starting FFmpeg for 高冷19.wav: ffmpeg -i Z:\Story\高冷\高冷19.wav -b:a 128k -vn -y -loglevel error -stats -progress pipe:1 Z:\Story\高冷\高冷19.mp3\n[ConversionWorker] FFmpeg process started. PID: 30156\n[STDOUT RAW] bitrate= 124.3kbits/s\n[STDOUT RAW] total_size=76460\n[STDOUT RAW] out_time_us=4921958\n[STDOUT RAW] out_time_ms=4921958\n[STDOUT RAW] out_time=00:00:04.921958\n[STDOUT RAW] dup_frames=0\n[STDOUT RAW] drop_frames=0\n[STDOUT RAW] speed=9.74x\n[STDOUT RAW] progress=continue\n[STDERR RAW] size=      75KiB time=00:00:04.92 bitrate= 124.3kbits/s speed=9.74x\n[STDOUT RAW] bitrate= 125.9kbits/s\n[STDOUT RAW] total_size=159788\n[STDOUT RAW] out_time_us=10153958\n[STDOUT RAW] out_time_ms=10153958\n[STDOUT RAW] out_time=00:00:10.153958\n[STDOUT RAW] dup_frames=0\n[STDOUT RAW] drop_frames=0\n[STDOUT RAW] speed=9.86x\n[STDOUT RAW] progress=continue\n[STDERR RAW] size=     156KiB time=00:00:10.15 bitrate= 125.9kbits/s speed=9.86x\n[STDOUT RAW] bitrate= 126.6kbits/s\n[STDOUT RAW] total_size=237356\n[STDOUT RAW] out_time_us=15001958\n[STDOUT RAW] out_time_ms=15001958\n[STDOUT RAW] out_time=00:00:15.001958\n[STDOUT RAW] dup_frames=0\n[STDOUT RAW] drop_frames=0\n[STDOUT RAW] speed=9.75x\n[STDOUT RAW] progress=continue\n[STDERR RAW] size=     232KiB time=00:00:15.00 bitrate= 126.6kbits/s speed=9.75x\n[STDOUT RAW] bitrate= 121.4kbits/s\n[STDOUT RAW] total_size=1572864\n[STDOUT RAW] out_time_us=103681958\n[STDOUT RAW] out_time_ms=103681958\n[STDOUT RAW] out_time=00:01:43.681958\n[STDOUT RAW] dup_frames=0\n[STDOUT RAW] drop_frames=0\n[STDOUT RAW] speed=50.5x\n[STDOUT RAW] progress=continue\n[STDERR RAW] size=    1536KiB time=00:01:43.68 bitrate= 121.4kbits/s speed=50.5x\n[STDOUT RAW] bitrate= 118.9kbits/s\n[STDOUT RAW] total_size=3407872\n[STDOUT RAW] out_time_us=229249958\n[STDOUT RAW] out_time_ms=229249958\n[STDOUT RAW] out_time=00:03:49.249958\n[STDOUT RAW] dup_frames=0\n[STDOUT RAW] drop_frames=0\n[STDOUT RAW] speed=89.2x\n[STDOUT RAW] progress=continue\n[STDERR RAW] size=    3328KiB time=00:03:49.24 bitrate= 118.9kbits/s speed=89.2x\n[STDOUT RAW] bitrate= 126.6kbits/s\n[STDOUT RAW] total_size=5505024\n[STDOUT RAW] out_time_us=347761958\n[STDOUT RAW] out_time_ms=347761958\n[STDOUT RAW] out_time=00:05:47.761958\n[STDOUT RAW] dup_frames=0\n[STDOUT RAW] drop_frames=0\n[STDOUT RAW] speed= 113x\n[STDOUT RAW] progress=continue\n[STDERR RAW] size=    5376KiB time=00:05:47.76 bitrate= 126.6kbits/s speed= 113x\n[STDOUT RAW] bitrate= 125.5kbits/s\n[STDOUT RAW] total_size=7340032\n[STDOUT RAW] out_time_us=467761958\n[STDOUT RAW] out_time_ms=467761958\n[STDOUT RAW] out_time=00:07:47.761958\n[STDOUT RAW] dup_frames=0\n[STDOUT RAW] drop_frames=0\n[STDOUT RAW] speed= 130x\n[STDOUT RAW] progress=continue\n[STDERR RAW] size=    7168KiB time=00:07:47.76 bitrate= 125.5kbits/s speed= 130x\n[STDOUT RAW] bitrate= 126.9kbits/s\n[STDOUT RAW] total_size=9175040\n[STDOUT RAW] out_time_us=578545958\n[STDOUT RAW] out_time_ms=578545958\n[STDOUT RAW] out_time=00:09:38.545958\n[STDOUT RAW] dup_frames=0\n[STDOUT RAW] drop_frames=0\n[STDOUT RAW] speed= 141x\n[STDOUT RAW] progress=continue\n[STDERR RAW] size=    8960KiB time=00:09:38.54 bitrate= 126.9kbits/s speed= 141x\n[STDOUT RAW] bitrate= 125.9kbits/s\n[STDOUT RAW] total_size=11010048\n[STDOUT RAW] out_time_us=699625958\n[STDOUT RAW] out_time_ms=699625958\n[STDOUT RAW] out_time=00:11:39.625958\n[STDOUT RAW] dup_frames=0\n[STDOUT RAW] drop_frames=0\n[STDOUT RAW] speed= 151x\n[STDOUT RAW] progress=continue\n[STDERR RAW] size=   10752KiB time=00:11:39.62 bitrate= 125.9kbits/s speed= 151x\n[STDOUT RAW] bitrate= 126.0kbits/s\n[STDOUT RAW] total_size=12845056\n[STDOUT RAW] out_time_us=815305958\n[STDOUT RAW] out_time_ms=815305958\n[STDOUT RAW] out_time=00:13:35.305958\n[STDOUT RAW] dup_frames=0\n[STDOUT RAW] drop_frames=0\n[STDOUT RAW] speed= 159x\n[STDOUT RAW] progress=continue\n[STDERR RAW] size=   12544KiB time=00:13:35.30 bitrate= 126.0kbits/s speed= 159x\n[STDOUT RAW] bitrate= 126.3kbits/s\n[STDOUT RAW] total_size=14680064\n[STDOUT RAW] out_time_us=929497958\n[STDOUT RAW] out_time_ms=929497958\n[STDOUT RAW] out_time=00:15:29.497958\n[STDOUT RAW] dup_frames=0\n[STDOUT RAW] drop_frames=0\n[STDOUT RAW] speed= 164x\n[STDOUT RAW] progress=continue\n[STDERR RAW] size=   14336KiB time=00:15:29.49 bitrate= 126.3kbits/s speed= 164x\n[STDOUT RAW] bitrate= 127.0kbits/s\n[STDOUT RAW] total_size=16515072\n[STDOUT RAW] out_time_us=1039921958\n[STDOUT RAW] out_time_ms=1039921958\n[STDOUT RAW] out_time=00:17:19.921958\n[STDOUT RAW] dup_frames=0\n[STDOUT RAW] drop_frames=0\n[STDOUT RAW] speed= 168x\n[STDOUT RAW] progress=continue\n[STDERR RAW] size=   16128KiB time=00:17:19.92 bitrate= 127.0kbits/s speed= 168x\n[STDOUT RAW] bitrate= 127.2kbits/s\n[STDOUT RAW] total_size=18350080\n[STDOUT RAW] out_time_us=1154233958\n[STDOUT RAW] out_time_ms=1154233958\n[STDOUT RAW] out_time=00:19:14.233958\n[STDOUT RAW] dup_frames=0\n[STDOUT RAW] drop_frames=0\n[STDOUT RAW] speed= 172x\n[STDOUT RAW] progress=continue\n[STDERR RAW] size=   17920KiB time=00:19:14.23 bitrate= 127.2kbits/s speed= 172x\n[STDOUT RAW] bitrate= 127.4kbits/s\n[STDOUT RAW] total_size=20185088\n[STDOUT RAW] out_time_us=1267537958\n[STDOUT RAW] out_time_ms=1267537958\n[STDOUT RAW] out_time=00:21:07.537958\n[STDOUT RAW] dup_frames=0\n[STDOUT RAW] drop_frames=0\n[STDOUT RAW] speed= 176x\n[STDOUT RAW] progress=continue\n[STDERR RAW] size=   19712KiB time=00:21:07.53 bitrate= 127.4kbits/s speed= 176x\n[STDOUT RAW] bitrate= 126.5kbits/s\n[STDOUT RAW] total_size=21757952\n[STDOUT RAW] out_time_us=1376377958\n[STDOUT RAW] out_time_ms=1376377958\n[STDOUT RAW] out_time=00:22:56.377958\n[STDOUT RAW] dup_frames=0\n[STDOUT RAW] drop_frames=0\n[STDOUT RAW] speed= 178x\n[STDOUT RAW] progress=continue\n[STDERR RAW] size=   21248KiB time=00:22:56.37 bitrate= 126.5kbits/s speed= 178x\n[STDOUT RAW] bitrate= 126.6kbits/s\n[STDOUT RAW] total_size=23592960\n[STDOUT RAW] out_time_us=1491073958\n[STDOUT RAW] out_time_ms=1491073958\n[STDOUT RAW] out_time=00:24:51.073958\n[STDOUT RAW] dup_frames=0\n[STDOUT RAW] drop_frames=0\n[STDOUT RAW] speed= 181x\n[STDOUT RAW] progress=continue\n[STDERR RAW] size=   23040KiB time=00:24:51.07 bitrate= 126.6kbits/s speed= 181x\n[STDOUT RAW] bitrate= 126.7kbits/s\n[STDOUT RAW] total_size=25427968\n[STDOUT RAW] out_time_us=1604953958\n[STDOUT RAW] out_time_ms=1604953958\n[STDOUT RAW] out_time=00:26:44.953958\n[STDOUT RAW] dup_frames=0\n[STDOUT RAW] drop_frames=0\n[STDOUT RAW] speed= 183x\n[STDOUT RAW] progress=continue\n[STDERR RAW] size=   24832KiB time=00:26:44.95 bitrate= 126.7kbits/s speed= 183x\n[STDOUT RAW] bitrate= 126.8kbits/s\n[STDOUT RAW] total_size=27262976\n[STDOUT RAW] out_time_us=1719649958\n[STDOUT RAW] out_time_ms=1719649958\n[STDOUT RAW] out_time=00:28:39.649958\n[STDOUT RAW] dup_frames=0\n[STDOUT RAW] drop_frames=0\n[STDOUT RAW] speed= 185x\n[STDOUT RAW] progress=continue\n[STDERR RAW] size=   26624KiB time=00:28:39.64 bitrate= 126.8kbits/s speed= 185x\n[STDOUT RAW] bitrate= 127.1kbits/s\n[STDOUT RAW] total_size=29097984\n[STDOUT RAW] out_time_us=1831657958\n[STDOUT RAW] out_time_ms=1831657958\n[STDOUT RAW] out_time=00:30:31.657958\n[STDOUT RAW] dup_frames=0\n[STDOUT RAW] drop_frames=0\n[STDOUT RAW] speed= 187x\n[STDOUT RAW] progress=continue\n[STDERR RAW] size=   28416KiB time=00:30:31.65 bitrate= 127.1kbits/s speed= 187x\n[STDOUT RAW] bitrate= 127.4kbits/s\n[STDOUT RAW] total_size=30932992\n[STDOUT RAW] out_time_us=1941889958\n[STDOUT RAW] out_time_ms=1941889958\n[STDOUT RAW] out_time=00:32:21.889958\n[STDOUT RAW] dup_frames=0\n[STDOUT RAW] drop_frames=0\n[STDOUT RAW] speed= 188x\n[STDOUT RAW] progress=continue\n[STDERR RAW] size=   30208KiB time=00:32:21.88 bitrate= 127.4kbits/s speed= 188x\n[STDOUT RAW] bitrate= 127.0kbits/s\n[STDOUT RAW] total_size=32505856\n[STDOUT RAW] out_time_us=2048137958\n[STDOUT RAW] out_time_ms=2048137958\n[STDOUT RAW] out_time=00:34:08.137958\n[STDOUT RAW] dup_frames=0\n[STDOUT RAW] drop_frames=0\n[STDOUT RAW] speed= 189x\n[STDOUT RAW] progress=continue\n[STDERR RAW] size=   31744KiB time=00:34:08.13 bitrate= 127.0kbits/s speed= 189x\n[STDOUT RAW] bitrate= 128.0kbits/s\n[STDOUT RAW] total_size=34340864\n[STDOUT RAW] out_time_us=2147065958\n[STDOUT RAW] out_time_ms=2147065958\n[STDOUT RAW] out_time=00:35:47.065958\n[STDOUT RAW] dup_frames=0\n[STDOUT RAW] drop_frames=0\n[STDOUT RAW] speed= 189x\n[STDOUT RAW] progress=continue\n[STDOUT RAW] bitrate= 127.1kbits/s\n[STDERR RAW] size=   33536KiB time=00:35:47.06 bitrate= 128.0kbits/s speed= 189x\n[STDOUT RAW] total_size=35651584\n[STDOUT RAW] out_time_us=2244745958\n[STDOUT RAW] out_time_ms=2244745958\n[STDOUT RAW] out_time=00:37:24.745958\n[STDOUT RAW] dup_frames=0\n[STDOUT RAW] drop_frames=0\n[STDOUT RAW] speed= 189x\n[STDOUT RAW] progress=continue\n[STDERR RAW] size=   34816KiB time=00:37:24.74 bitrate= 127.1kbits/s speed= 189x\n[STDOUT RAW] bitrate= 127.3kbits/s\n[STDOUT RAW] total_size=37486592\n[STDOUT RAW] out_time_us=2356177958\n[STDOUT RAW] out_time_ms=2356177958\n[STDOUT RAW] out_time=00:39:16.177958\n[STDOUT RAW] dup_frames=0\n[STDOUT RAW] drop_frames=0\n[STDOUT RAW] speed= 191x\n[STDOUT RAW] progress=continue\n[STDERR RAW] size=   36608KiB time=00:39:16.17 bitrate= 127.3kbits/s speed= 191x\n[STDOUT RAW] bitrate= 127.2kbits/s\n[STDOUT RAW] total_size=39059456\n[STDOUT RAW] out_time_us=2456209958\n[STDOUT RAW] out_time_ms=2456209958\n[STDOUT RAW] out_time=00:40:56.209958\n[STDOUT RAW] dup_frames=0\n[STDOUT RAW] drop_frames=0\n[STDOUT RAW] speed= 191x\n[STDOUT RAW] progress=continue\n[STDERR RAW] size=   38144KiB time=00:40:56.20 bitrate= 127.2kbits/s speed= 191x\n[STDOUT RAW] bitrate= 127.2kbits/s\n[STDOUT RAW] total_size=40632320\n[STDOUT RAW] out_time_us=2554489958\n[STDOUT RAW] out_time_ms=2554489958\n[STDOUT RAW] out_time=00:42:34.489958\n[STDOUT RAW] dup_frames=0\n[STDOUT RAW] drop_frames=0\n[STDOUT RAW] speed= 191x\n[STDOUT RAW] progress=continue\n[STDERR RAW] size=   39680KiB time=00:42:34.48 bitrate= 127.2kbits/s speed= 191x\n[STDOUT RAW] bitrate= 127.3kbits/s\n[STDOUT RAW] total_size=42205184\n[STDOUT RAW] out_time_us=2652049958\n[STDOUT RAW] out_time_ms=2652049958\n[STDOUT RAW] out_time=00:44:12.049958\n[STDOUT RAW] dup_frames=0\n[STDOUT RAW] drop_frames=0\n[STDOUT RAW] speed= 191x\n[STDOUT RAW] progress=continue\n[STDERR RAW] size=   41216KiB time=00:44:12.04 bitrate= 127.3kbits/s speed= 191x\n[STDOUT RAW] bitrate= 127.7kbits/s\n[STDOUT RAW] total_size=43778048\n[STDOUT RAW] out_time_us=2743537958\n[STDOUT RAW] out_time_ms=2743537958\n[STDOUT RAW] out_time=00:45:43.537958\n[STDOUT RAW] dup_frames=0\n[STDOUT RAW] drop_frames=0\n[STDOUT RAW] speed= 190x\n[STDOUT RAW] progress=continue\n[STDERR RAW] size=   42752KiB time=00:45:43.53 bitrate= 127.7kbits/s speed= 190x\n[STDOUT RAW] bitrate= 127.8kbits/s\n[STDOUT RAW] total_size=45350912\n[STDOUT RAW] out_time_us=2838313958\n[STDOUT RAW] out_time_ms=2838313958\n[STDOUT RAW] out_time=00:47:18.313958\n[STDOUT RAW] dup_frames=0\n[STDOUT RAW] drop_frames=0\n[STDOUT RAW] speed= 190x\n[STDOUT RAW] progress=continue\n[STDERR RAW] size=   44288KiB time=00:47:18.31 bitrate= 127.8kbits/s speed= 190x\n[STDOUT RAW] bitrate= 128.0kbits/s\n[STDOUT RAW] total_size=46923776\n[STDOUT RAW] out_time_us=2933089958\n[STDOUT RAW] out_time_ms=2933089958\n[STDOUT RAW] out_time=00:48:53.089958\n[STDOUT RAW] dup_frames=0\n[STDOUT RAW] drop_frames=0\n[STDOUT RAW] speed= 190x\n[STDOUT RAW] progress=continue\n[STDERR RAW] size=   45824KiB time=00:48:53.08 bitrate= 128.0kbits/s speed= 190x\n[STDOUT RAW] bitrate= 127.9kbits/s\n[STDOUT RAW] total_size=48496640\n[STDOUT RAW] out_time_us=3034417958\n[STDOUT RAW] out_time_ms=3034417958\n[STDOUT RAW] out_time=00:50:34.417958\n[STDOUT RAW] dup_frames=0\n[STDOUT RAW] drop_frames=0\n[STDOUT RAW] speed= 190x\n[STDOUT RAW] progress=continue\n[STDERR RAW] size=   47360KiB time=00:50:34.41 bitrate= 127.9kbits/s speed= 190x\n[STDOUT RAW] bitrate= 127.4kbits/s\n[STDOUT RAW] total_size=49807360\n[STDOUT RAW] out_time_us=3127897958\n[STDOUT RAW] out_time_ms=3127897958\n[STDOUT RAW] out_time=00:52:07.897958\n[STDOUT RAW] dup_frames=0\n[STDOUT RAW] drop_frames=0\n[STDOUT RAW] speed= 189x\n[STDOUT RAW] progress=continue\n[STDERR RAW] size=   48640KiB time=00:52:07.89 bitrate= 127.4kbits/s speed= 189x\n[STDOUT RAW] bitrate= 127.8kbits/s\n[STDOUT RAW] total_size=51380224\n[STDOUT RAW] out_time_us=3216601958\n[STDOUT RAW] out_time_ms=3216601958\n[STDOUT RAW] out_time=00:53:36.601958\n[STDOUT RAW] dup_frames=0\n[STDOUT RAW] drop_frames=0\n[STDOUT RAW] speed= 189x\n[STDOUT RAW] progress=continue\n[STDERR RAW] size=   50176KiB time=00:53:36.60 bitrate= 127.8kbits/s speed= 189x\n[STDOUT RAW] bitrate= 127.8kbits/s\n[STDOUT RAW] total_size=52953088\n[STDOUT RAW] out_time_us=3313705958\n[STDOUT RAW] out_time_ms=3313705958\n[STDOUT RAW] out_time=00:55:13.705958\n[STDOUT RAW] dup_frames=0\n[STDOUT RAW] drop_frames=0\n[STDOUT RAW] speed= 189x\n[STDOUT RAW] progress=continue\n[STDERR RAW] size=   51712KiB time=00:55:13.70 bitrate= 127.8kbits/s speed= 189x\n[STDOUT RAW] bitrate= 127.6kbits/s\n[STDOUT RAW] total_size=54525952\n[STDOUT RAW] out_time_us=3418393958\n[STDOUT RAW] out_time_ms=3418393958\n[STDOUT RAW] out_time=00:56:58.393958\n[STDOUT RAW] dup_frames=0\n[STDOUT RAW] drop_frames=0\n[STDOUT RAW] speed= 189x\n[STDOUT RAW] progress=continue\n[STDERR RAW] size=   53248KiB time=00:56:58.39 bitrate= 127.6kbits/s speed= 189x\n[STDOUT RAW] bitrate= 127.9kbits/s\n[STDOUT RAW] total_size=56098816\n[STDOUT RAW] out_time_us=3508489958\n[STDOUT RAW] out_time_ms=3508489958\n[STDOUT RAW] out_time=00:58:28.489958\n[STDOUT RAW] dup_frames=0\n[STDOUT RAW] drop_frames=0\n[STDOUT RAW] speed= 189x\n[STDOUT RAW] progress=continue\n[STDERR RAW] size=   54784KiB time=00:58:28.48 bitrate= 127.9kbits/s speed= 189x\n[STDOUT RAW] bitrate= 127.5kbits/s\n[STDOUT RAW] total_size=57409536\n[STDOUT RAW] out_time_us=3602449958\n[STDOUT RAW] out_time_ms=3602449958\n[STDOUT RAW] out_time=01:00:02.449958\n[STDOUT RAW] dup_frames=0\n[STDOUT RAW] drop_frames=0\n[STDOUT RAW] speed= 189x\n[STDOUT RAW] progress=continue\n[STDERR RAW] size=   56064KiB time=01:00:02.44 bitrate= 127.5kbits/s speed= 189x\n[STDOUT RAW] bitrate= 127.5kbits/s\n[STDOUT RAW] total_size=58982400\n[STDOUT RAW] out_time_us=3699577958\n[STDOUT RAW] out_time_ms=3699577958\n[STDOUT RAW] out_time=01:01:39.577958\n[STDOUT RAW] dup_frames=0\n[STDOUT RAW] drop_frames=0\n[STDOUT RAW] speed= 189x\n[STDOUT RAW] progress=continue\n[STDERR RAW] size=   57600KiB time=01:01:39.57 bitrate= 127.5kbits/s speed= 189x\n[STDOUT RAW] bitrate= 127.8kbits/s\n[STDOUT RAW] total_size=60817408\n[STDOUT RAW] out_time_us=3807361958\n[STDOUT RAW] out_time_ms=3807361958\n[STDOUT RAW] out_time=01:03:27.361958\n[STDOUT RAW] dup_frames=0\n[STDOUT RAW] drop_frames=0\n[STDOUT RAW] speed= 189x\n[STDOUT RAW] progress=continue\n[STDERR RAW] size=   59392KiB time=01:03:27.36 bitrate= 127.8kbits/s speed= 189x\n[STDOUT RAW] bitrate= 127.7kbits/s\n[STDOUT RAW] total_size=62390272\n[STDOUT RAW] out_time_us=3908473958\n[STDOUT RAW] out_time_ms=3908473958\n[STDOUT RAW] out_time=01:05:08.473958\n[STDOUT RAW] dup_frames=0\n[STDOUT RAW] drop_frames=0\n[STDOUT RAW] speed= 189x\n[STDOUT RAW] progress=continue\n[STDERR RAW] size=   60928KiB time=01:05:08.47 bitrate= 127.7kbits/s speed= 189x\n[STDOUT RAW] bitrate= 127.7kbits/s\n[STDOUT RAW] total_size=63963136\n[STDOUT RAW] out_time_us=4005625958\n[STDOUT RAW] out_time_ms=4005625958\n[STDOUT RAW] out_time=01:06:45.625958\n[STDOUT RAW] dup_frames=0\n[STDOUT RAW] drop_frames=0\n[STDOUT RAW] speed= 189x\n[STDOUT RAW] progress=continue\n[STDERR RAW] size=   62464KiB time=01:06:45.62 bitrate= 127.7kbits/s speed= 189x\n[STDOUT RAW] bitrate= 127.6kbits/s\n[STDOUT RAW] total_size=65536000\n[STDOUT RAW] out_time_us=4107745958\n[STDOUT RAW] out_time_ms=4107745958\n[STDOUT RAW] out_time=01:08:27.745958\n[STDOUT RAW] dup_frames=0\n[STDOUT RAW] drop_frames=0\n[STDOUT RAW] speed= 190x\n[STDOUT RAW] progress=continue\n[STDERR RAW] size=   64000KiB time=01:08:27.74 bitrate= 127.6kbits/s speed= 190x\n[STDOUT RAW] bitrate= 127.5kbits/s\n[STDOUT RAW] total_size=67108864\n[STDOUT RAW] out_time_us=4209793958\n[STDOUT RAW] out_time_ms=4209793958\n[STDOUT RAW] out_time=01:10:09.793958\n[STDOUT RAW] dup_frames=0\n[STDOUT RAW] drop_frames=0\n[STDOUT RAW] speed= 190x\n[STDOUT RAW] progress=continue\n[STDERR RAW] size=   65536KiB time=01:10:09.79 bitrate= 127.5kbits/s speed= 190x\n[STDOUT RAW] bitrate= 127.6kbits/s\n[STDOUT RAW] total_size=68681728\n[STDOUT RAW] out_time_us=4305721958\n[STDOUT RAW] out_time_ms=4305721958\n[STDOUT RAW] out_time=01:11:45.721958\n[STDOUT RAW] dup_frames=0\n[STDOUT RAW] drop_frames=0\n[STDOUT RAW] speed= 190x\n[STDOUT RAW] progress=continue\n[STDERR RAW] size=   67072KiB time=01:11:45.72 bitrate= 127.6kbits/s speed= 190x\n[STDOUT RAW] bitrate= 127.8kbits/s\n[STDOUT RAW] total_size=70516736\n[STDOUT RAW] out_time_us=4414537958\n[STDOUT RAW] out_time_ms=4414537958\n[STDOUT RAW] out_time=01:13:34.537958\n[STDOUT RAW] dup_frames=0\n[STDOUT RAW] drop_frames=0\n[STDOUT RAW] speed= 190x\n[STDOUT RAW] progress=continue\n[STDERR RAW] size=   68864KiB time=01:13:34.53 bitrate= 127.8kbits/s speed= 190x\n[STDOUT RAW] bitrate= 128.0kbits/s\n[STDOUT RAW] total_size=72351744\n[STDOUT RAW] out_time_us=4522849958\n[STDOUT RAW] out_time_ms=4522849958\n[STDOUT RAW] out_time=01:15:22.849958\n[STDOUT RAW] dup_frames=0\n[STDOUT RAW] drop_frames=0\n[STDOUT RAW] speed= 191x\n[STDOUT RAW] progress=continue\n[STDERR RAW] size=   70656KiB time=01:15:22.84 bitrate= 128.0kbits/s speed= 191x\n[STDOUT RAW] bitrate= 127.8kbits/s\n[STDOUT RAW] total_size=73924608\n[STDOUT RAW] out_time_us=4626961958\n[STDOUT RAW] out_time_ms=4626961958\n[STDOUT RAW] out_time=01:17:06.961958\n[STDOUT RAW] dup_frames=0\n[STDOUT RAW] drop_frames=0\n[STDOUT RAW] speed= 191x\n[STDOUT RAW] progress=continue\n[STDERR RAW] size=   72192KiB time=01:17:06.96 bitrate= 127.8kbits/s speed= 191x\n[STDOUT RAW] bitrate= 128.0kbits/s\n[STDOUT RAW] total_size=75759616\n[STDOUT RAW] out_time_us=4736137958\n[STDOUT RAW] out_time_ms=4736137958\n[STDOUT RAW] out_time=01:18:56.137958\n[STDOUT RAW] dup_frames=0\n[STDOUT RAW] drop_frames=0\n[STDOUT RAW] speed= 191x\n[STDOUT RAW] progress=continue\n[STDERR RAW] size=   73984KiB time=01:18:56.13 bitrate= 128.0kbits/s speed= 191x\n[STDOUT RAW] bitrate= 127.6kbits/s\n[STDOUT RAW] total_size=77070336\n[STDOUT RAW] out_time_us=4833409958\n[STDOUT RAW] out_time_ms=4833409958\n[STDOUT RAW] out_time=01:20:33.409958\n[STDOUT RAW] dup_frames=0\n[STDOUT RAW] drop_frames=0\n[STDOUT RAW] speed= 191x\n[STDOUT RAW] progress=continue\n[STDERR RAW] size=   75264KiB time=01:20:33.40 bitrate= 127.6kbits/s speed= 191x\n[STDOUT RAW] bitrate= 127.7kbits/s\n[STDOUT RAW] total_size=78905344\n[STDOUT RAW] out_time_us=4944601958\n[STDOUT RAW] out_time_ms=4944601958\n[STDOUT RAW] out_time=01:22:24.601958\n[STDOUT RAW] dup_frames=0\n[STDOUT RAW] drop_frames=0\n[STDOUT RAW] speed= 192x\n[STDOUT RAW] progress=continue\n[STDERR RAW] size=   77056KiB time=01:22:24.60 bitrate= 127.7kbits/s speed= 192x\n[STDOUT RAW] bitrate= 127.8kbits/s\n[STDOUT RAW] total_size=80740352\n[STDOUT RAW] out_time_us=5052601958\n[STDOUT RAW] out_time_ms=5052601958\n[STDOUT RAW] out_time=01:24:12.601958\n[STDOUT RAW] dup_frames=0\n[STDOUT RAW] drop_frames=0\n[STDOUT RAW] speed= 192x\n[STDOUT RAW] progress=continue\n[STDERR RAW] size=   78848KiB time=01:24:12.60 bitrate= 127.8kbits/s speed= 192x\n[STDOUT RAW] bitrate= 127.9kbits/s\n[STDOUT RAW] total_size=82313216\n[STDOUT RAW] out_time_us=5148865958\n[STDOUT RAW] out_time_ms=5148865958\n[STDOUT RAW] out_time=01:25:48.865958\n[STDOUT RAW] dup_frames=0\n[STDOUT RAW] drop_frames=0\n[STDOUT RAW] speed= 192x\n[STDOUT RAW] progress=continue\n[STDERR RAW] size=   80384KiB time=01:25:48.86 bitrate= 127.9kbits/s speed= 192x\n[STDOUT RAW] bitrate= 127.7kbits/s\n[STDOUT RAW] total_size=83886080\n[STDOUT RAW] out_time_us=5253625958\n[STDOUT RAW] out_time_ms=5253625958\n[STDOUT RAW] out_time=01:27:33.625958\n[STDOUT RAW] dup_frames=0\n[STDOUT RAW] drop_frames=0\n[STDOUT RAW] speed= 192x\n[STDOUT RAW] progress=continue\n[STDERR RAW] size=   81920KiB time=01:27:33.62 bitrate= 127.7kbits/s speed= 192x\n[STDOUT RAW] bitrate= 127.8kbits/s\n[STDOUT RAW] total_size=85721088\n[STDOUT RAW] out_time_us=5367961958\n[STDOUT RAW] out_time_ms=5367961958\n[STDOUT RAW] out_time=01:29:27.961958\n[STDOUT RAW] dup_frames=0\n[STDOUT RAW] drop_frames=0\n[STDOUT RAW] speed= 193x\n[STDOUT RAW] progress=continue\n[STDERR RAW] size=   83712KiB time=01:29:27.96 bitrate= 127.8kbits/s speed= 193x\n[STDOUT RAW] bitrate= 127.9kbits/s\n[STDOUT RAW] total_size=87556096\n[STDOUT RAW] out_time_us=5474497958\n[STDOUT RAW] out_time_ms=5474497958\n[STDOUT RAW] out_time=01:31:14.497958\n[STDOUT RAW] dup_frames=0\n[STDOUT RAW] drop_frames=0\n[STDOUT RAW] speed= 193x\n[STDOUT RAW] progress=continue\n[STDOUT RAW] bitrate= 127.6kbits/s\n[STDOUT RAW] total_size=89128960\n[STDOUT RAW] out_time_us=5587081958\n[STDOUT RAW] out_time_ms=5587081958\n[STDOUT RAW] out_time=01:33:07.081958\n[STDOUT RAW] dup_frames=0\n[STDERR RAW] size=   85504KiB time=01:31:14.49 bitrate= 127.9kbits/s speed= 193x\n[STDOUT RAW] drop_frames=0\n[STDOUT RAW] speed= 193x\n[STDOUT RAW] progress=continue\n[STDERR RAW] size=   87040KiB time=01:33:07.08 bitrate= 127.6kbits/s speed= 193x\n[STDOUT RAW] bitrate= 127.8kbits/s\n[STDOUT RAW] total_size=90963968\n[STDOUT RAW] out_time_us=5695177958\n[STDOUT RAW] out_time_ms=5695177958\n[STDOUT RAW] out_time=01:34:55.177958\n[STDOUT RAW] dup_frames=0\n[STDOUT RAW] drop_frames=0\n[STDOUT RAW] speed= 194x\n[STDOUT RAW] progress=continue\n[STDERR RAW] size=   88832KiB time=01:34:55.17 bitrate= 127.8kbits/s speed= 194x\n[STDOUT RAW] bitrate= 127.9kbits/s\n[STDOUT RAW] total_size=92798976\n[STDOUT RAW] out_time_us=5805241958\n[STDOUT RAW] out_time_ms=5805241958\n[STDOUT RAW] out_time=01:36:45.241958\n[STDOUT RAW] dup_frames=0\n[STDOUT RAW] drop_frames=0\n[STDOUT RAW] speed= 194x\n[STDOUT RAW] progress=continue\n[STDOUT RAW] bitrate= 127.8kbits/s\n[STDOUT RAW] total_size=94633984\n[STDOUT RAW] out_time_us=5923321958\n[STDOUT RAW] out_time_ms=5923321958\n[STDOUT RAW] out_time=01:38:43.321958\n[STDOUT RAW] dup_frames=0\n[STDOUT RAW] drop_frames=0\n[STDOUT RAW] speed= 195x\n[STDOUT RAW] progress=continue\n[STDERR RAW] size=   90624KiB time=01:36:45.24 bitrate= 127.9kbits/s speed= 194x\n[STDERR RAW] size=   92416KiB time=01:38:43.32 bitrate= 127.8kbits/s speed= 195x\n[STDOUT RAW] bitrate= 127.7kbits/s\n[STDOUT RAW] total_size=96206848\n[STDOUT RAW] out_time_us=6028537958\n[STDOUT RAW] out_time_ms=6028537958\n[STDOUT RAW] out_time=01:40:28.537958\n[STDOUT RAW] dup_frames=0\n[STDOUT RAW] drop_frames=0\n[STDOUT RAW] speed= 195x\n[STDOUT RAW] progress=continue\n[STDERR RAW] size=   93952KiB time=01:40:28.53 bitrate= 127.7kbits/s speed= 195x\n[STDOUT RAW] bitrate= 128.0kbits/s\n[STDOUT RAW] total_size=98304000\n[STDOUT RAW] out_time_us=6144769958\n[STDOUT RAW] out_time_ms=6144769958\n[STDOUT RAW] out_time=01:42:24.769958\n[STDOUT RAW] dup_frames=0\n[STDOUT RAW] drop_frames=0\n[STDOUT RAW] speed= 195x\n[STDOUT RAW] progress=continue\n[STDERR RAW] size=   96000KiB time=01:42:24.76 bitrate= 128.0kbits/s speed= 195x\n[STDOUT RAW] bitrate= 127.8kbits/s\n[STDOUT RAW] total_size=99876864\n[STDOUT RAW] out_time_us=6252601958\n[STDOUT RAW] out_time_ms=6252601958\n[STDOUT RAW] out_time=01:44:12.601958\n[STDOUT RAW] dup_frames=0\n[STDOUT RAW] drop_frames=0\n[STDOUT RAW] speed= 196x\n[STDOUT RAW] progress=continue\n[STDERR RAW] size=   97536KiB time=01:44:12.60 bitrate= 127.8kbits/s speed= 196x\n[STDOUT RAW] bitrate= 127.9kbits/s\n[STDOUT RAW] total_size=101711872\n[STDOUT RAW] out_time_us=6362233958\n[STDOUT RAW] out_time_ms=6362233958\n[STDOUT RAW] out_time=01:46:02.233958\n[STDOUT RAW] dup_frames=0\n[STDOUT RAW] drop_frames=0\n[STDOUT RAW] speed= 196x\n[STDOUT RAW] progress=continue\n[STDERR RAW] size=   99328KiB time=01:46:02.23 bitrate= 127.9kbits/s speed= 196x\n[STDOUT RAW] bitrate= 127.9kbits/s\n[STDOUT RAW] total_size=103546880\n[STDOUT RAW] out_time_us=6476617958\n[STDOUT RAW] out_time_ms=6476617958\n[STDOUT RAW] out_time=01:47:56.617958\n[STDOUT RAW] dup_frames=0\n[STDOUT RAW] drop_frames=0\n[STDOUT RAW] speed= 196x\n[STDOUT RAW] progress=continue\n[STDERR RAW] size=  101120KiB time=01:47:56.61 bitrate= 127.9kbits/s speed= 196x\n[STDOUT RAW] bitrate= 127.7kbits/s\n[STDOUT RAW] total_size=105119744\n[STDOUT RAW] out_time_us=6586489958\n[STDOUT RAW] out_time_ms=6586489958\n[STDOUT RAW] out_time=01:49:46.489958\n[STDOUT RAW] dup_frames=0\n[STDOUT RAW] drop_frames=0\n[STDOUT RAW] speed= 196x\n[STDOUT RAW] progress=continue\n[STDERR RAW] size=  102656KiB time=01:49:46.48 bitrate= 127.7kbits/s speed= 196x\n[STDOUT RAW] bitrate= 127.8kbits/s\n[STDOUT RAW] total_size=106954752\n[STDOUT RAW] out_time_us=6697009958\n[STDOUT RAW] out_time_ms=6697009958\n[STDOUT RAW] out_time=01:51:37.009958\n[STDOUT RAW] dup_frames=0\n[STDOUT RAW] drop_frames=0\n[STDOUT RAW] speed= 197x\n[STDOUT RAW] progress=continue\n[STDERR RAW] size=  104448KiB time=01:51:37.00 bitrate= 127.8kbits/s speed= 197x\n[STDOUT RAW] bitrate= 127.8kbits/s\n[STDOUT RAW] total_size=108527616\n[STDOUT RAW] out_time_us=6794713958\n[STDOUT RAW] out_time_ms=6794713958\n[STDOUT RAW] out_time=01:53:14.713958\n[STDOUT RAW] dup_frames=0\n[STDOUT RAW] drop_frames=0\n[STDOUT RAW] speed= 197x\n[STDOUT RAW] progress=continue\n[STDERR RAW] size=  105984KiB time=01:53:14.71 bitrate= 127.8kbits/s speed= 197x\n[STDOUT RAW] bitrate= 127.7kbits/s\n[STDOUT RAW] total_size=110100480\n[STDOUT RAW] out_time_us=6897793958\n[STDOUT RAW] out_time_ms=6897793958\n[STDOUT RAW] out_time=01:54:57.793958\n[STDOUT RAW] dup_frames=0\n[STDOUT RAW] drop_frames=0\n[STDOUT RAW] speed= 197x\n[STDOUT RAW] progress=continue\n[STDERR RAW] size=  107520KiB time=01:54:57.79 bitrate= 127.7kbits/s speed= 197x\n[STDOUT RAW] bitrate= 127.9kbits/s\n[STDOUT RAW] total_size=111935488\n[STDOUT RAW] out_time_us=7000201958\n[STDOUT RAW] out_time_ms=7000201958\n[STDOUT RAW] out_time=01:56:40.201958\n[STDOUT RAW] dup_frames=0\n[STDOUT RAW] drop_frames=0\n[STDOUT RAW] speed= 197x\n[STDOUT RAW] progress=continue\n[STDERR RAW] size=  109312KiB time=01:56:40.20 bitrate= 127.9kbits/s speed= 197x\n[STDOUT RAW] bitrate= 127.7kbits/s\n[STDOUT RAW] total_size=113246208\n[STDOUT RAW] out_time_us=7094401958\n[STDOUT RAW] out_time_ms=7094401958\n[STDOUT RAW] out_time=01:58:14.401958\n[STDOUT RAW] dup_frames=0\n[STDOUT RAW] drop_frames=0\n[STDOUT RAW] speed= 196x\n[STDOUT RAW] progress=continue\n[STDERR RAW] size=  110592KiB time=01:58:14.40 bitrate= 127.7kbits/s speed= 196x\n[STDOUT RAW] bitrate= 127.8kbits/s\n[STDOUT RAW] total_size=115081216\n[STDOUT RAW] out_time_us=7203601958\n[STDOUT RAW] out_time_ms=7203601958\n[STDOUT RAW] out_time=02:00:03.601958\n[STDOUT RAW] dup_frames=0\n[STDOUT RAW] drop_frames=0\n[STDOUT RAW] speed= 197x\n[STDOUT RAW] progress=continue\n[STDERR RAW] size=  112384KiB time=02:00:03.60 bitrate= 127.8kbits/s speed= 197x\n[STDOUT RAW] bitrate= 127.8kbits/s\n[STDOUT RAW] total_size=116916224\n[STDOUT RAW] out_time_us=7316473958\n[STDOUT RAW] out_time_ms=7316473958\n[STDOUT RAW] out_time=02:01:56.473958\n[STDOUT RAW] dup_frames=0\n[STDOUT RAW] drop_frames=0\n[STDOUT RAW] speed= 197x\n[STDOUT RAW] progress=continue\n[STDERR RAW] size=  114176KiB time=02:01:56.47 bitrate= 127.8kbits/s speed= 197x\n[STDOUT RAW] bitrate= 127.9kbits/s\n[STDOUT RAW] total_size=118751232\n[STDOUT RAW] out_time_us=7425433958\n[STDOUT RAW] out_time_ms=7425433958\n[STDOUT RAW] out_time=02:03:45.433958\n[STDOUT RAW] dup_frames=0\n[STDOUT RAW] drop_frames=0\n[STDOUT RAW] speed= 197x\n[STDOUT RAW] progress=continue\n[STDERR RAW] size=  115968KiB time=02:03:45.43 bitrate= 127.9kbits/s speed= 197x\n[STDOUT RAW] bitrate= 127.9kbits/s\n[STDOUT RAW] total_size=120324096\n[STDOUT RAW] out_time_us=7524841958\n[STDOUT RAW] out_time_ms=7524841958\n[STDOUT RAW] out_time=02:05:24.841958\n[STDOUT RAW] dup_frames=0\n[STDOUT RAW] drop_frames=0\n[STDOUT RAW] speed= 197x\n[STDOUT RAW] progress=continue\n[STDERR RAW] size=  117504KiB time=02:05:24.84 bitrate= 127.9kbits/s speed= 197x\n[STDOUT RAW] bitrate= 127.7kbits/s\n[STDOUT RAW] total_size=121896960\n[STDOUT RAW] out_time_us=7635073958\n[STDOUT RAW] out_time_ms=7635073958\n[STDOUT RAW] out_time=02:07:15.073958\n[STDOUT RAW] dup_frames=0\n[STDOUT RAW] drop_frames=0\n[STDOUT RAW] speed= 197x\n[STDOUT RAW] progress=continue\n[STDOUT RAW] bitrate= 127.9kbits/s\n[STDOUT RAW] total_size=123731968\n[STDERR RAW] size=  119040KiB time=02:07:15.07 bitrate= 127.7kbits/s speed= 197x\n[STDOUT RAW] out_time_us=7738513958\n[STDOUT RAW] out_time_ms=7738513958\n[STDOUT RAW] out_time=02:08:58.513958\n[STDOUT RAW] dup_frames=0\n[STDOUT RAW] drop_frames=0\n[STDOUT RAW] speed= 197x\n[STDOUT RAW] progress=continue\n[STDERR RAW] size=  120832KiB time=02:08:58.51 bitrate= 127.9kbits/s speed= 197x\n[STDOUT RAW] bitrate= 127.8kbits/s\n[STDOUT RAW] total_size=125304832\n[STDOUT RAW] out_time_us=7844905958\n[STDOUT RAW] out_time_ms=7844905958\n[STDOUT RAW] out_time=02:10:44.905958\n[STDOUT RAW] dup_frames=0\n[STDOUT RAW] drop_frames=0\n[STDOUT RAW] speed= 198x\n[STDOUT RAW] progress=continue\n[STDERR RAW] size=  122368KiB time=02:10:44.90 bitrate= 127.8kbits/s speed= 198x\n[STDOUT RAW] bitrate= 127.8kbits/s\n[STDOUT RAW] total_size=127139840\n[STDOUT RAW] out_time_us=7958881958\n[STDOUT RAW] out_time_ms=7958881958\n[STDOUT RAW] out_time=02:12:38.881958\n[STDOUT RAW] dup_frames=0\n[STDOUT RAW] drop_frames=0\n[STDOUT RAW] speed= 198x\n[STDOUT RAW] progress=continue\n[STDERR RAW] size=  124160KiB time=02:12:38.88 bitrate= 127.8kbits/s speed= 198x\n[STDOUT RAW] bitrate= 127.9kbits/s\n[STDOUT RAW] total_size=128974848\n[STDOUT RAW] out_time_us=8064697958\n[STDOUT RAW] out_time_ms=8064697958\n[STDOUT RAW] out_time=02:14:24.697958\n[STDOUT RAW] dup_frames=0\n[STDOUT RAW] drop_frames=0\n[STDOUT RAW] speed= 198x\n[STDOUT RAW] progress=continue\n[STDERR RAW] size=  125952KiB time=02:14:24.69 bitrate= 127.9kbits/s speed= 198x\n[STDOUT RAW] bitrate= 127.8kbits/s\n[STDOUT RAW] total_size=130547712\n[STDOUT RAW] out_time_us=8172769958\n[STDOUT RAW] out_time_ms=8172769958\n[STDOUT RAW] out_time=02:16:12.769958\n[STDOUT RAW] dup_frames=0\n[STDOUT RAW] drop_frames=0\n[STDOUT RAW] speed= 198x\n[STDOUT RAW] progress=continue\n[STDERR RAW] size=  127488KiB time=02:16:12.76 bitrate= 127.8kbits/s speed= 198x\n[STDOUT RAW] bitrate= 127.8kbits/s\n[STDOUT RAW] total_size=132120576\n[STDOUT RAW] out_time_us=8272561958\n[STDOUT RAW] out_time_ms=8272561958\n[STDOUT RAW] out_time=02:17:52.561958\n[STDOUT RAW] dup_frames=0\n[STDOUT RAW] drop_frames=0\n[STDOUT RAW] speed= 198x\n[STDOUT RAW] progress=continue\n[STDERR RAW] size=  129024KiB time=02:17:52.56 bitrate= 127.8kbits/s speed= 198x\n[STDOUT RAW] bitrate= 128.0kbits/s\n[STDOUT RAW] total_size=133955584\n[STDOUT RAW] out_time_us=8375377958\n[STDOUT RAW] out_time_ms=8375377958\n[STDOUT RAW] out_time=02:19:35.377958\n[STDOUT RAW] dup_frames=0\n[STDOUT RAW] drop_frames=0\n[STDOUT RAW] speed= 198x\n[STDOUT RAW] progress=continue\n[STDERR RAW] size=  130816KiB time=02:19:35.37 bitrate= 128.0kbits/s speed= 198x\n[STDOUT RAW] bitrate= 127.8kbits/s\n[STDOUT RAW] total_size=135528448\n[STDOUT RAW] out_time_us=8486281958\n[STDOUT RAW] out_time_ms=8486281958\n[STDOUT RAW] out_time=02:21:26.281958\n[STDOUT RAW] dup_frames=0\n[STDOUT RAW] drop_frames=0\n[STDOUT RAW] speed= 198x\n[STDOUT RAW] progress=continue\n[STDERR RAW] size=  132352KiB time=02:21:26.28 bitrate= 127.8kbits/s speed= 198x\n[STDOUT RAW] bitrate= 127.9kbits/s\n[STDOUT RAW] total_size=137363456\n[STDOUT RAW] out_time_us=8592937958\n[STDOUT RAW] out_time_ms=8592937958\n[STDOUT RAW] out_time=02:23:12.937958\n[STDOUT RAW] dup_frames=0\n[STDOUT RAW] drop_frames=0\n[STDOUT RAW] speed= 198x\n[STDOUT RAW] progress=continue\n[STDERR RAW] size=  134144KiB time=02:23:12.93 bitrate= 127.9kbits/s speed= 198x\n[STDOUT RAW] bitrate= 127.8kbits/s\n[STDOUT RAW] total_size=138936320\n[STDOUT RAW] out_time_us=8696617958\n[STDOUT RAW] out_time_ms=8696617958\n[STDOUT RAW] out_time=02:24:56.617958\n[STDOUT RAW] dup_frames=0\n[STDOUT RAW] drop_frames=0\n[STDOUT RAW] speed= 198x\n[STDOUT RAW] progress=continue\n[STDERR RAW] size=  135680KiB time=02:24:56.61 bitrate= 127.8kbits/s speed= 198x\n[STDOUT RAW] bitrate= 127.8kbits/s\n[STDOUT RAW] total_size=140509184\n[STDOUT RAW] out_time_us=8798329958\n[STDOUT RAW] out_time_ms=8798329958\n[STDOUT RAW] out_time=02:26:38.329958\n[STDOUT RAW] dup_frames=0\n[STDOUT RAW] drop_frames=0\n[STDOUT RAW] speed= 198x\n[STDOUT RAW] progress=continue\n[STDERR RAW] size=  137216KiB time=02:26:38.32 bitrate= 127.8kbits/s speed= 198x\n[STDOUT RAW] bitrate= 127.9kbits/s\n[STDOUT RAW] total_size=142344192\n[STDOUT RAW] out_time_us=8905897958\n[STDOUT RAW] out_time_ms=8905897958\n[STDOUT RAW] out_time=02:28:25.897958\n[STDOUT RAW] dup_frames=0\n[STDOUT RAW] drop_frames=0\n[STDOUT RAW] speed= 198x\n[STDOUT RAW] progress=continue\n[STDERR RAW] size=  139008KiB time=02:28:25.89 bitrate= 127.9kbits/s speed= 198x\n[STDOUT RAW] bitrate= 127.9kbits/s\n[STDOUT RAW] total_size=144179200\n[STDOUT RAW] out_time_us=9020017958\n[STDOUT RAW] out_time_ms=9020017958\n[STDOUT RAW] out_time=02:30:20.017958\n[STDOUT RAW] dup_frames=0\n[STDOUT RAW] drop_frames=0\n[STDOUT RAW] speed= 199x\n[STDOUT RAW] progress=continue\n[STDERR RAW] size=  140800KiB time=02:30:20.01 bitrate= 127.9kbits/s speed= 199x\n[STDOUT RAW] bitrate= 127.8kbits/s\n[STDOUT RAW] total_size=145752064\n[STDOUT RAW] out_time_us=9126025958\n[STDOUT RAW] out_time_ms=9126025958\n[STDOUT RAW] out_time=02:32:06.025958\n[STDOUT RAW] dup_frames=0\n[STDOUT RAW] drop_frames=0\n[STDOUT RAW] speed= 199x\n[STDOUT RAW] progress=continue\n[STDERR RAW] size=  142336KiB time=02:32:06.02 bitrate= 127.8kbits/s speed= 199x\n[STDOUT RAW] bitrate= 128.0kbits/s\n[STDOUT RAW] total_size=147849216\n[STDOUT RAW] out_time_us=9242665958\n[STDOUT RAW] out_time_ms=9242665958\n[STDOUT RAW] out_time=02:34:02.665958\n[STDOUT RAW] dup_frames=0\n[STDOUT RAW] drop_frames=0\n[STDOUT RAW] speed= 199x\n[STDOUT RAW] progress=continue\n[STDERR RAW] size=  144384KiB time=02:34:02.66 bitrate= 128.0kbits/s speed= 199x\n[STDOUT RAW] bitrate= 128.0kbits/s\n[STDOUT RAW] total_size=149422080\n[STDOUT RAW] out_time_us=9341473958\n[STDOUT RAW] out_time_ms=9341473958\n[STDOUT RAW] out_time=02:35:41.473958\n[STDOUT RAW] dup_frames=0\n[STDOUT RAW] drop_frames=0\n[STDOUT RAW] speed= 199x\n[STDOUT RAW] progress=continue\n[STDERR RAW] size=  145920KiB time=02:35:41.47 bitrate= 128.0kbits/s speed= 199x\n[STDOUT RAW] bitrate= 127.8kbits/s\n[STDOUT RAW] total_size=150994944\n[STDOUT RAW] out_time_us=9448753958\n[STDOUT RAW] out_time_ms=9448753958\n[STDOUT RAW] out_time=02:37:28.753958\n[STDOUT RAW] dup_frames=0\n[STDOUT RAW] drop_frames=0\n[STDOUT RAW] speed= 199x\n[STDOUT RAW] progress=continue\n[STDERR RAW] size=  147456KiB time=02:37:28.75 bitrate= 127.8kbits/s speed= 199x\n[STDOUT RAW] bitrate= 127.8kbits/s\n[STDOUT RAW] total_size=152567808\n[STDOUT RAW] out_time_us=9552001958\n[STDOUT RAW] out_time_ms=9552001958\n[STDOUT RAW] out_time=02:39:12.001958\n[STDOUT RAW] dup_frames=0\n[STDOUT RAW] drop_frames=0\n[STDOUT RAW] speed= 199x\n[STDOUT RAW] progress=continue\n[STDERR RAW] size=  148992KiB time=02:39:12.00 bitrate= 127.8kbits/s speed= 199x\n[STDOUT RAW] bitrate= 127.8kbits/s\n[STDOUT RAW] total_size=154140672\n[STDOUT RAW] out_time_us=9645145958\n[STDOUT RAW] out_time_ms=9645145958\n[STDOUT RAW] out_time=02:40:45.145958\n[STDOUT RAW] dup_frames=0\n[STDOUT RAW] drop_frames=0\n[STDOUT RAW] speed= 199x\n[STDOUT RAW] progress=continue\n[STDERR RAW] size=  150528KiB time=02:40:45.14 bitrate= 127.8kbits/s speed= 199x\n[STDOUT RAW] bitrate= 127.9kbits/s\n[STDOUT RAW] total_size=155713536\n[STDOUT RAW] out_time_us=9741241958\n[STDOUT RAW] out_time_ms=9741241958\n[STDOUT RAW] out_time=02:42:21.241958\n[STDOUT RAW] dup_frames=0\n[STDOUT RAW] drop_frames=0\n[STDOUT RAW] speed= 199x\n[STDOUT RAW] progress=continue\n[STDOUT RAW] bitrate= 127.8kbits/s\n[STDOUT RAW] total_size=157286400\n[STDOUT RAW] out_time_us=9846745958\n[STDOUT RAW] out_time_ms=9846745958\n[STDOUT RAW] out_time=02:44:06.745958\n[STDOUT RAW] dup_frames=0\n[STDOUT RAW] drop_frames=0\n[STDOUT RAW] speed= 199x\n[STDOUT RAW] progress=continue\n[STDERR RAW] size=  152064KiB time=02:42:21.24 bitrate= 127.9kbits/s speed= 199x\n[STDERR RAW] size=  153600KiB time=02:44:06.74 bitrate= 127.8kbits/s speed= 199x\n[STDOUT RAW] bitrate= 127.9kbits/s\n[STDOUT RAW] total_size=159121408\n[STDOUT RAW] out_time_us=9955393958\n[STDOUT RAW] out_time_ms=9955393958\n[STDOUT RAW] out_time=02:45:55.393958\n[STDOUT RAW] dup_frames=0\n[STDOUT RAW] drop_frames=0\n[STDOUT RAW] speed= 199x\n[STDOUT RAW] progress=continue\n[STDERR RAW] size=  155392KiB time=02:45:55.39 bitrate= 127.9kbits/s speed= 199x\n[STDOUT RAW] bitrate= 127.8kbits/s\n[STDOUT RAW] total_size=160694272\n[STDOUT RAW] out_time_us=10057345958\n[STDOUT RAW] out_time_ms=10057345958\n[STDOUT RAW] out_time=02:47:37.345958\n[STDOUT RAW] dup_frames=0\n[STDOUT RAW] drop_frames=0\n[STDOUT RAW] speed= 199x\n[STDOUT RAW] progress=continue\n[STDERR RAW] size=  156928KiB time=02:47:37.34 bitrate= 127.8kbits/s speed= 199x\n[STDOUT RAW] bitrate= 127.8kbits/s\n[STDOUT RAW] total_size=162267136\n[STDOUT RAW] out_time_us=10158217958\n[STDOUT RAW] out_time_ms=10158217958\n[STDOUT RAW] out_time=02:49:18.217958\n[STDOUT RAW] dup_frames=0\n[STDOUT RAW] drop_frames=0\n[STDOUT RAW] speed= 199x\n[STDOUT RAW] progress=continue\n[STDERR RAW] size=  158464KiB time=02:49:18.21 bitrate= 127.8kbits/s speed= 199x\n[STDOUT RAW] bitrate= 127.8kbits/s\n[STDOUT RAW] total_size=163840000\n[STDOUT RAW] out_time_us=10255273958\n[STDOUT RAW] out_time_ms=10255273958\n[STDOUT RAW] out_time=02:50:55.273958\n[STDOUT RAW] dup_frames=0\n[STDOUT RAW] drop_frames=0\n[STDOUT RAW] speed= 199x\n[STDOUT RAW] progress=continue\n[STDERR RAW] size=  160000KiB time=02:50:55.27 bitrate= 127.8kbits/s speed= 199x\n[STDOUT RAW] bitrate= 127.9kbits/s\n[STDOUT RAW] total_size=165412864\n[STDOUT RAW] out_time_us=10347385958\n[STDOUT RAW] out_time_ms=10347385958\n[STDOUT RAW] out_time=02:52:27.385958\n[STDOUT RAW] dup_frames=0\n[STDOUT RAW] drop_frames=0\n[STDOUT RAW] speed= 199x\n[STDOUT RAW] progress=continue\n[STDERR RAW] size=  161536KiB time=02:52:27.38 bitrate= 127.9kbits/s speed= 199x\n[STDOUT RAW] bitrate= 127.9kbits/s\n[STDOUT RAW] total_size=166985728\n[STDOUT RAW] out_time_us=10447969958\n[STDOUT RAW] out_time_ms=10447969958\n[STDOUT RAW] out_time=02:54:07.969958\n[STDOUT RAW] dup_frames=0\n[STDOUT RAW] drop_frames=0\n[STDOUT RAW] speed= 199x\n[STDOUT RAW] progress=continue\n[STDERR RAW] size=  163072KiB time=02:54:07.96 bitrate= 127.9kbits/s speed= 199x\n[STDOUT RAW] bitrate= 128.0kbits/s\n[STDOUT RAW] total_size=168558592\n[STDOUT RAW] out_time_us=10538929958\n[STDOUT RAW] out_time_ms=10538929958\n[STDOUT RAW] out_time=02:55:38.929958\n[STDOUT RAW] dup_frames=0\n[STDOUT RAW] drop_frames=0\n[STDOUT RAW] speed= 198x\n[STDOUT RAW] progress=continue\n[STDERR RAW] size=  164608KiB time=02:55:38.92 bitrate= 128.0kbits/s speed= 198x\n[STDOUT RAW] bitrate= 127.9kbits/s\n[STDOUT RAW] total_size=170131456\n[STDOUT RAW] out_time_us=10644361958\n[STDOUT RAW] out_time_ms=10644361958\n[STDOUT RAW] out_time=02:57:24.361958\n[STDOUT RAW] dup_frames=0\n[STDOUT RAW] drop_frames=0\n[STDOUT RAW] speed= 198x\n[STDOUT RAW] progress=continue\n[STDERR RAW] size=  166144KiB time=02:57:24.36 bitrate= 127.9kbits/s speed= 198x\n[STDOUT RAW] bitrate= 127.8kbits/s\n[STDOUT RAW] total_size=171704320\n[STDOUT RAW] out_time_us=10748041958\n[STDOUT RAW] out_time_ms=10748041958\n[STDOUT RAW] out_time=02:59:08.041958\n[STDOUT RAW] dup_frames=0\n[STDOUT RAW] drop_frames=0\n[STDOUT RAW] speed= 198x\n[STDOUT RAW] progress=continue\n[STDERR RAW] size=  167680KiB time=02:59:08.04 bitrate= 127.8kbits/s speed= 198x\n[STDOUT RAW] bitrate= 127.9kbits/s\n[STDOUT RAW] total_size=173539328\n[STDOUT RAW] out_time_us=10856257958\n[STDOUT RAW] out_time_ms=10856257958\n[STDOUT RAW] out_time=03:00:56.257958\n[STDOUT RAW] dup_frames=0\n[STDOUT RAW] drop_frames=0\n[STDOUT RAW] speed= 199x\n[STDOUT RAW] progress=continue\n[STDERR RAW] size=  169472KiB time=03:00:56.25 bitrate= 127.9kbits/s speed= 199x\n[STDOUT RAW] bitrate= 127.8kbits/s\n[STDOUT RAW] total_size=175112192\n[STDOUT RAW] out_time_us=10961017958\n[STDOUT RAW] out_time_ms=10961017958\n[STDOUT RAW] out_time=03:02:41.017958\n[STDOUT RAW] dup_frames=0\n[STDOUT RAW] drop_frames=0\n[STDOUT RAW] speed= 199x\n[STDOUT RAW] progress=continue\n[STDERR RAW] size=  171008KiB time=03:02:41.01 bitrate= 127.8kbits/s speed= 199x\n[STDOUT RAW] bitrate= 127.9kbits/s\n[STDOUT RAW] total_size=176947200\n[STDOUT RAW] out_time_us=11071225958\n[STDOUT RAW] out_time_ms=11071225958\n[STDOUT RAW] out_time=03:04:31.225958\n[STDOUT RAW] dup_frames=0\n[STDOUT RAW] drop_frames=0\n[STDOUT RAW] speed= 199x\n[STDOUT RAW] progress=continue\n[STDERR RAW] size=  172800KiB time=03:04:31.22 bitrate= 127.9kbits/s speed= 199x\n[STDOUT RAW] bitrate= 127.9kbits/s\n[STDOUT RAW] total_size=178782208\n[STDOUT RAW] out_time_us=11178793958\n[STDOUT RAW] out_time_ms=11178793958\n[STDOUT RAW] out_time=03:06:18.793958\n[STDOUT RAW] dup_frames=0\n[STDOUT RAW] drop_frames=0\n[STDOUT RAW] speed= 199x\n[STDOUT RAW] progress=continue\n[STDERR RAW] size=  174592KiB time=03:06:18.79 bitrate= 127.9kbits/s speed= 199x\n[STDOUT RAW] bitrate= 127.9kbits/s\n[STDOUT RAW] total_size=180355072\n[STDOUT RAW] out_time_us=11278225958\n[STDOUT RAW] out_time_ms=11278225958\n[STDOUT RAW] out_time=03:07:58.225958\n[STDOUT RAW] dup_frames=0\n[STDOUT RAW] drop_frames=0\n[STDOUT RAW] speed= 199x\n[STDOUT RAW] progress=continue\n[STDERR RAW] size=  176128KiB time=03:07:58.22 bitrate= 127.9kbits/s speed= 199x\n[STDOUT RAW] bitrate= 127.8kbits/s\n[STDOUT RAW] total_size=181927936\n[STDOUT RAW] out_time_us=11387017958\n[STDOUT RAW] out_time_ms=11387017958\n[STDOUT RAW] out_time=03:09:47.017958\n[STDOUT RAW] dup_frames=0\n[STDOUT RAW] drop_frames=0\n[STDOUT RAW] speed= 199x\n[STDOUT RAW] progress=continue\n[STDERR RAW] size=  177664KiB time=03:09:47.01 bitrate= 127.8kbits/s speed= 199x\n[STDOUT RAW] bitrate= 128.0kbits/s\n[STDOUT RAW] total_size=183762944\n[STDOUT RAW] out_time_us=11488753958\n[STDOUT RAW] out_time_ms=11488753958\n[STDOUT RAW] out_time=03:11:28.753958\n[STDOUT RAW] dup_frames=0\n[STDOUT RAW] drop_frames=0\n[STDOUT RAW] speed= 199x\n[STDOUT RAW] progress=continue\n[STDERR RAW] size=  179456KiB time=03:11:28.75 bitrate= 128.0kbits/s speed= 199x\n[STDOUT RAW] bitrate= 127.9kbits/s\n[STDOUT RAW] total_size=185335808\n[STDOUT RAW] out_time_us=11589433958\n[STDOUT RAW] out_time_ms=11589433958\n[STDOUT RAW] out_time=03:13:09.433958\n[STDOUT RAW] dup_frames=0\n[STDOUT RAW] drop_frames=0\n[STDOUT RAW] speed= 199x\n[STDOUT RAW] progress=continue\n[STDERR RAW] size=  180992KiB time=03:13:09.43 bitrate= 127.9kbits/s speed= 199x\n[STDOUT RAW] bitrate= 127.8kbits/s\n[STDOUT RAW] total_size=186908672\n[STDOUT RAW] out_time_us=11698297958\n[STDOUT RAW] out_time_ms=11698297958\n[STDOUT RAW] out_time=03:14:58.297958\n[STDOUT RAW] dup_frames=0\n[STDOUT RAW] drop_frames=0\n[STDOUT RAW] speed= 199x\n[STDOUT RAW] progress=continue\n[STDERR RAW] size=  182528KiB time=03:14:58.29 bitrate= 127.8kbits/s speed= 199x\n[STDOUT RAW] bitrate= 127.9kbits/s\n[STDOUT RAW] total_size=188743680\n[STDOUT RAW] out_time_us=11805529958\n[STDOUT RAW] out_time_ms=11805529958\n[STDOUT RAW] out_time=03:16:45.529958\n[STDOUT RAW] dup_frames=0\n[STDOUT RAW] drop_frames=0\n[STDOUT RAW] speed= 199x\n[STDOUT RAW] progress=continue\n[STDERR RAW] size=  184320KiB time=03:16:45.52 bitrate= 127.9kbits/s speed= 199x\n[STDOUT RAW] bitrate= 127.8kbits/s\n[STDOUT RAW] total_size=190316544\n[STDOUT RAW] out_time_us=11911057958\n[STDOUT RAW] out_time_ms=11911057958\n[STDOUT RAW] out_time=03:18:31.057958\n[STDOUT RAW] dup_frames=0\n[STDOUT RAW] drop_frames=0\n[STDOUT RAW] speed= 199x\n[STDOUT RAW] progress=continue\n[STDERR RAW] size=  185856KiB time=03:18:31.05 bitrate= 127.8kbits/s speed= 199x\n[STDOUT RAW] bitrate= 127.9kbits/s\n[STDOUT RAW] total_size=192151552\n[STDOUT RAW] out_time_us=12019129958\n[STDOUT RAW] out_time_ms=12019129958\n[STDOUT RAW] out_time=03:20:19.129958\n[STDOUT RAW] dup_frames=0\n[STDOUT RAW] drop_frames=0\n[STDOUT RAW] speed= 199x\n[STDOUT RAW] progress=continue\n[STDERR RAW] size=  187648KiB time=03:20:19.12 bitrate= 127.9kbits/s speed= 199x\n[STDOUT RAW] bitrate= 127.8kbits/s\n[STDOUT RAW] total_size=193724416\n[STDOUT RAW] out_time_us=12123865958\n[STDOUT RAW] out_time_ms=12123865958\n[STDOUT RAW] out_time=03:22:03.865958\n[STDOUT RAW] dup_frames=0\n[STDOUT RAW] drop_frames=0\n[STDOUT RAW] speed= 199x\n[STDOUT RAW] progress=continue\n[STDERR RAW] size=  189184KiB time=03:22:03.86 bitrate= 127.8kbits/s speed= 199x\n[STDOUT RAW] bitrate= 127.9kbits/s\n[STDOUT RAW] total_size=195559424\n[STDOUT RAW] out_time_us=12232681958\n[STDOUT RAW] out_time_ms=12232681958\n[STDOUT RAW] out_time=03:23:52.681958\n[STDOUT RAW] dup_frames=0\n[STDOUT RAW] drop_frames=0\n[STDOUT RAW] speed= 199x\n[STDOUT RAW] progress=continue\n[STDERR RAW] size=  190976KiB time=03:23:52.68 bitrate= 127.9kbits/s speed= 199x\n[STDOUT RAW] bitrate= 128.0kbits/s\n[STDOUT RAW] total_size=197394432\n[STDOUT RAW] out_time_us=12340729958\n[STDOUT RAW] out_time_ms=12340729958\n[STDOUT RAW] out_time=03:25:40.729958\n[STDOUT RAW] dup_frames=0\n[STDOUT RAW] drop_frames=0\n[STDOUT RAW] speed= 199x\n[STDOUT RAW] progress=continue\n[STDERR RAW] size=  192768KiB time=03:25:40.72 bitrate= 128.0kbits/s speed= 199x\n[STDOUT RAW] bitrate= 128.0kbits/s\n[STDOUT RAW] total_size=198967296\n[STDOUT RAW] out_time_us=12438553958\n[STDOUT RAW] out_time_ms=12438553958\n[STDOUT RAW] out_time=03:27:18.553958\n[STDOUT RAW] dup_frames=0\n[STDOUT RAW] drop_frames=0\n[STDOUT RAW] speed= 199x\n[STDOUT RAW] progress=continue\n[STDERR RAW] size=  194304KiB time=03:27:18.55 bitrate= 128.0kbits/s speed= 199x\n[STDOUT RAW] bitrate= 127.9kbits/s\n[STDOUT RAW] total_size=200802304\n[STDOUT RAW] out_time_us=12557761958\n[STDOUT RAW] out_time_ms=12557761958\n[STDOUT RAW] out_time=03:29:17.761958\n[STDOUT RAW] dup_frames=0\n[STDOUT RAW] drop_frames=0\n[STDOUT RAW] speed=200x\n[STDOUT RAW] progress=continue\n[STDERR RAW] size=  196096KiB time=03:29:17.76 bitrate= 127.9kbits/s speed=200x\n[STDOUT RAW] bitrate= 127.8kbits/s\n[STDOUT RAW] total_size=202375168\n[STDOUT RAW] out_time_us=12664537958\n[STDOUT RAW] out_time_ms=12664537958\n[STDOUT RAW] out_time=03:31:04.537958\n[STDOUT RAW] dup_frames=0\n[STDOUT RAW] drop_frames=0\n[STDOUT RAW] speed=200x\n[STDOUT RAW] progress=continue\n[STDERR RAW] size=  197632KiB time=03:31:04.53 bitrate= 127.8kbits/s speed=200x\n[STDOUT RAW] bitrate= 127.9kbits/s\n[STDOUT RAW] total_size=204210176\n[STDOUT RAW] out_time_us=12777361958\n[STDOUT RAW] out_time_ms=12777361958\n[STDOUT RAW] out_time=03:32:57.361958\n[STDOUT RAW] dup_frames=0\n[STDOUT RAW] drop_frames=0\n[STDOUT RAW] speed=200x\n[STDOUT RAW] progress=continue\n[STDERR RAW] size=  199424KiB time=03:32:57.36 bitrate= 127.9kbits/s speed=200x\n[STDOUT RAW] bitrate= 128.0kbits/s\n[STDOUT RAW] total_size=206045184\n[STDOUT RAW] out_time_us=12879769958\n[STDOUT RAW] out_time_ms=12879769958\n[STDOUT RAW] out_time=03:34:39.769958\n[STDOUT RAW] dup_frames=0\n[STDOUT RAW] drop_frames=0\n[STDOUT RAW] speed=200x\n[STDOUT RAW] progress=continue\n[STDERR RAW] size=  201216KiB time=03:34:39.76 bitrate= 128.0kbits/s speed=200x\n[STDOUT RAW] bitrate= 127.9kbits/s\n[STDOUT RAW] total_size=207618048\n[STDOUT RAW] out_time_us=12990217958\n[STDOUT RAW] out_time_ms=12990217958\n[STDOUT RAW] out_time=03:36:30.217958\n[STDOUT RAW] dup_frames=0\n[STDOUT RAW] drop_frames=0\n[STDOUT RAW] speed=200x\n[STDOUT RAW] progress=continue\n[STDERR RAW] size=  202752KiB time=03:36:30.21 bitrate= 127.9kbits/s speed=200x\n[STDOUT RAW] bitrate= 127.8kbits/s\n[STDOUT RAW] total_size=208928768\n[STDOUT RAW] out_time_us=13074553958\n[STDOUT RAW] out_time_ms=13074553958\n[STDOUT RAW] out_time=03:37:54.553958\n[STDOUT RAW] dup_frames=0\n[STDOUT RAW] drop_frames=0\n[STDOUT RAW] speed=200x\n[STDOUT RAW] progress=continue\n[STDERR RAW] size=  204032KiB time=03:37:54.55 bitrate= 127.8kbits/s speed=200x\n[STDOUT RAW] bitrate= 127.8kbits/s\n[STDOUT RAW] total_size=210501632\n[STDOUT RAW] out_time_us=13172857958\n[STDOUT RAW] out_time_ms=13172857958\n[STDOUT RAW] out_time=03:39:32.857958\n[STDOUT RAW] dup_frames=0\n[STDOUT RAW] drop_frames=0\n[STDOUT RAW] speed=200x\n[STDOUT RAW] progress=continue\n[STDOUT RAW] bitrate= 127.9kbits/s\n[STDOUT RAW] total_size=212336640\n[STDOUT RAW] out_time_us=13280929958\n[STDOUT RAW] out_time_ms=13280929958\n[STDOUT RAW] out_time=03:41:20.929958\n[STDOUT RAW] dup_frames=0\n[STDOUT RAW] drop_frames=0\n[STDOUT RAW] speed=200x\n[STDERR RAW] size=  205568KiB time=03:39:32.85 bitrate= 127.8kbits/s speed=200x\n[STDOUT RAW] progress=continue\n[STDERR RAW] size=  207360KiB time=03:41:20.92 bitrate= 127.9kbits/s speed=200x\n[STDOUT RAW] bitrate= 128.0kbits/s\n[STDOUT RAW] total_size=214171648\n[STDOUT RAW] out_time_us=13386241958\n[STDOUT RAW] out_time_ms=13386241958\n[STDOUT RAW] out_time=03:43:06.241958\n[STDOUT RAW] dup_frames=0\n[STDOUT RAW] drop_frames=0\n[STDOUT RAW] speed=200x\n[STDOUT RAW] progress=continue\n[STDERR RAW] size=  209152KiB time=03:43:06.24 bitrate= 128.0kbits/s speed=200x\n[STDOUT RAW] bitrate= 127.9kbits/s\n[STDOUT RAW] total_size=215744512\n[STDOUT RAW] out_time_us=13499113958\n[STDOUT RAW] out_time_ms=13499113958\n[STDOUT RAW] out_time=03:44:59.113958\n[STDOUT RAW] dup_frames=0\n[STDOUT RAW] drop_frames=0\n[STDOUT RAW] speed=200x\n[STDOUT RAW] progress=continue\n[STDERR RAW] size=  210688KiB time=03:44:59.11 bitrate= 127.9kbits/s speed=200x\n[STDOUT RAW] bitrate= 128.0kbits/s\n[STDOUT RAW] total_size=217841664\n[STDOUT RAW] out_time_us=13615729958\n[STDOUT RAW] out_time_ms=13615729958\n[STDOUT RAW] out_time=03:46:55.729958\n[STDOUT RAW] dup_frames=0\n[STDOUT RAW] drop_frames=0\n[STDOUT RAW] speed=200x\n[STDOUT RAW] progress=continue\n[STDERR RAW] size=  212736KiB time=03:46:55.72 bitrate= 128.0kbits/s speed=200x\n[STDOUT RAW] bitrate= 128.0kbits/s\n[STDERR RAW] size=  213991KiB time=03:48:15.31 bitrate= 128.0kbits/s speed=200x\n[STDOUT RAW] total_size=219126572\n[STDOUT RAW] out_time_us=13695312625\n[STDOUT RAW] out_time_ms=13695312625\n[STDOUT RAW] out_time=03:48:15.312625\n[STDOUT RAW] dup_frames=0\n[STDOUT RAW] drop_frames=0\n[STDOUT RAW] speed=200x\n[STDOUT RAW] progress=end\n[ConversionWorker] STDERR pipe closed signal received.\n[ConversionWorker] Detected 'progress=end' for 高冷19.wav\n[ConversionWorker] STDOUT pipe closed signal received.\n[ConversionWorker] Process finished and both stream pipes closed. Exiting loop.\n[ConversionWorker] Waiting for reader threads to join...\n[ConversionWorker] FFmpeg process ended. Return code: 0\n[ConversionWorker] Closing FFmpeg log file.\n